<svg height="512" viewBox="0 0 128 128" width="512" xmlns="http://www.w3.org/2000/svg"><path d="m62.922 126.25h-8c0-6.243 3.665-9.5 6.342-11.884 2.47-2.2 3.658-3.366 3.658-5.905s-1.188-3.709-3.658-5.907c-2.677-2.38-6.342-5.641-6.342-11.883s3.665-9.5 6.342-11.883c2.47-2.2 3.658-3.366 3.658-5.9s-1.188-3.706-3.658-5.9c-2.676-2.38-6.342-5.64-6.342-11.882s3.666-9.5 6.342-11.879c2.47-2.2 3.658-3.365 3.658-5.9s-1.188-3.707-3.658-5.9c-2.677-2.38-6.342-5.64-6.342-11.881s3.666-9.5 6.342-11.881c2.47-2.2 3.658-3.365 3.658-5.9h8c0 6.242-3.666 9.5-6.342 11.881-2.471 2.2-3.658 3.365-3.658 5.9s1.187 3.706 3.658 5.9c2.676 2.38 6.342 5.64 6.342 11.882s-3.666 9.5-6.343 11.88c-2.47 2.2-3.657 3.364-3.657 5.9s1.187 3.707 3.658 5.9c2.677 2.38 6.342 5.64 6.342 11.882s-3.665 9.5-6.342 11.883c-2.471 2.2-3.658 3.366-3.658 5.9s1.187 3.708 3.658 5.9c2.677 2.381 6.342 5.642 6.342 11.885s-3.665 9.5-6.342 11.884c-2.471 2.2-3.658 3.369-3.658 5.908z" fill="#fdbf00"/><path d="m101.648 90.671h-8c0-6.242 3.665-9.5 6.342-11.883 2.471-2.2 3.658-3.366 3.658-5.9s-1.187-3.706-3.658-5.9c-2.676-2.38-6.342-5.64-6.342-11.882s3.666-9.5 6.342-11.879c2.471-2.2 3.658-3.365 3.658-5.9s-1.187-3.707-3.658-5.9c-2.677-2.38-6.342-5.64-6.342-11.881s3.666-9.5 6.342-11.881c2.471-2.2 3.658-3.365 3.658-5.9h8c0 6.242-3.666 9.5-6.341 11.881-2.471 2.2-3.659 3.365-3.659 5.9s1.188 3.706 3.659 5.9c2.675 2.38 6.341 5.64 6.341 11.882s-3.666 9.5-6.342 11.88c-2.47 2.2-3.658 3.364-3.658 5.9s1.188 3.707 3.659 5.9c2.676 2.38 6.341 5.64 6.341 11.882s-3.665 9.5-6.341 11.883c-2.471 2.191-3.659 3.36-3.659 5.898z" fill="#ffda2d"/><path d="m34.2 90.671h-8c0-2.538-1.187-3.707-3.658-5.9-2.682-2.385-6.342-5.645-6.342-11.887s3.66-9.502 6.337-11.884c2.471-2.2 3.658-3.366 3.658-5.9s-1.187-3.7-3.657-5.9c-2.677-2.379-6.343-5.638-6.343-11.88s3.666-9.5 6.342-11.882c2.471-2.2 3.658-3.365 3.658-5.9s-1.187-3.706-3.658-5.9c-2.676-2.387-6.337-5.646-6.337-11.888h8c0 2.537 1.188 3.706 3.658 5.9 2.676 2.38 6.342 5.639 6.342 11.881s-3.665 9.5-6.342 11.881c-2.47 2.2-3.658 3.365-3.658 5.9s1.188 3.7 3.658 5.9c2.671 2.388 6.342 5.644 6.342 11.888s-3.666 9.5-6.342 11.882c-2.47 2.2-3.658 3.366-3.658 5.9s1.188 3.707 3.658 5.9c2.672 2.387 6.342 5.647 6.342 11.889z" fill="#ffda2d"/><g fill="#979fef"><path d="m74.643 16.136h8.309v8.309h-8.309z" transform="matrix(.707 -.707 .707 .707 8.732 61.661)"/><path d="m88.893 105.617h8.309v8.309h-8.309z" transform="matrix(.707 -.707 .707 .707 -50.367 97.946)"/><path d="m116.299 51.983h8.309v8.309h-8.309z" transform="matrix(.707 -.707 .707 .707 -4.415 101.615)"/><path d="m11.129 99.742h8.309v8.309h-8.309z" transform="matrix(.707 -.707 .707 .707 -68.99 41.238)"/><path d="m38.749 65.724h8.309v8.309h-8.309z" transform="matrix(.707 -.707 .707 .707 -36.845 50.804)"/></g><path d="m87.172 54a5.719 5.719 0 1 1 -5.719-5.719 5.718 5.718 0 0 1 5.719 5.719z" fill="#ff7cb9"/><path d="m50.277 34.275a5.719 5.719 0 1 1 -5.718-5.718 5.718 5.718 0 0 1 5.718 5.718z" fill="#ff7cb9"/><path d="m13.187 19.343a5.719 5.719 0 1 1 -5.718-5.719 5.718 5.718 0 0 1 5.718 5.719z" fill="#ff7cb9"/><path d="m46.462 108.734a5.719 5.719 0 1 1 -5.719-5.719 5.719 5.719 0 0 1 5.719 5.719z" fill="#ff7cb9"/><path d="m126.172 100.609a5.719 5.719 0 1 1 -5.719-5.719 5.719 5.719 0 0 1 5.719 5.719z" fill="#ff7cb9"/></svg>