<svg id="Flat" height="512" viewBox="0 0 512 512" width="512" xmlns="http://www.w3.org/2000/svg"><path d="m128 152a8 8 0 0 1 -8-8v-64a8 8 0 0 1 16 0v64a8 8 0 0 1 -8 8z" fill="#dadcde"/><path d="m491.58 80.84-64-32a8 8 0 0 0 -11.58 7.16v64a8.009 8.009 0 0 0 11.58 7.16l64-32a8.009 8.009 0 0 0 0-14.32z" fill="#eb423f"/><path d="m424 160a8 8 0 0 1 -8-8v-96a8 8 0 0 1 16 0v96a8 8 0 0 1 -8 8z" fill="#c7312e"/><path d="m152 152h-64v80h40z" fill="#a82a27"/><path d="m360 344h-144l16-80h128z" fill="#c7312e"/><path d="m168 232a16 16 0 0 0 -16-16h-32a63.6 63.6 0 0 0 -31.99 8.56c-.01-.01-.01 0-.01 0a63.969 63.969 0 0 0 -32 55.44v64h128l-16-96z" fill="#c7312e"/><path d="m104 184h-48v-64h48a32 32 0 0 1 32 32 32 32 0 0 1 -32 32z" fill="#eb423f"/><path d="m56 120h32v64h-32z" fill="#ffb632"/><path d="m184 168h-48a16 16 0 0 1 -16-16 16 16 0 0 1 16-16h48a16 16 0 0 1 16 16 16 16 0 0 1 -16 16z" fill="#596063"/><path d="m152 344h208v32h-208z" fill="#a82a27"/><circle cx="400" cy="400" fill="#596063" r="56"/><circle cx="400" cy="400" fill="#e9eef2" r="24"/><rect fill="#596063" height="48" rx="16" width="144" x="216" y="216"/><path d="m88 296h32a32 32 0 0 1 32 32v64a0 0 0 0 1 0 0h-112a16 16 0 0 1 -16-16v-16a64 64 0 0 1 64-64z" fill="#eb423f"/><path d="m160 112h-8a32 32 0 0 1 0-64h8a8 8 0 0 1 8 8v48a8 8 0 0 1 -8 8z" fill="#e9eef2"/><circle cx="96" cy="400" fill="#596063" r="56"/><circle cx="96" cy="400" fill="#e9eef2" r="24"/><path d="m376 296h48a64 64 0 0 1 64 64v16a16 16 0 0 1 -16 16h-144a16 16 0 0 1 -16-16v-16a64 64 0 0 1 64-64z" fill="#eb423f"/><path d="m360 264h128v32h-128z" fill="#e9eef2"/><path d="m360 152h128v112h-128z" fill="#c7312e"/><path d="m360 152h128v32h-128z" fill="#a82a27"/><path d="m408 184h32v32h-32z" fill="#e9eef2"/></svg>