<?xml version="1.0" encoding="iso-8859-1"?>
<!-- Generator: Adobe Illustrator 19.0.0, SVG Export Plug-In . SVG Version: 6.00 Build 0)  -->
<svg version="1.1" id="Capa_1" xmlns="http://www.w3.org/2000/svg" xmlns:xlink="http://www.w3.org/1999/xlink" x="0px" y="0px"
	 viewBox="0 0 512 512" style="enable-background:new 0 0 512 512;" xml:space="preserve">
<circle style="fill:#FF0019;" cx="256" cy="256" r="256"/>
<path style="fill:#9E0D34;" d="M511.374,238.207L417,143.833L243.101,423.97l79.164,79.352C431.525,474.12,512,374.466,512,256
	C512,250.017,511.778,244.087,511.374,238.207z"/>
<path style="fill:#FFCD00;" d="M242.867,131.157L256,423.97h13.372l29.148-55.31l0.567-35.208l28.559-20.061l66.306-125.822l0,0
	C379.166,175.549,320.154,131.157,242.867,131.157z"/>
<path style="fill:#FFED94;" d="M118.049,187.57l124.579,236.4H256V131.157C178.712,131.157,132.833,175.55,118.049,187.57z"/>
<circle style="fill:#FF4E0A;" cx="205.05" cy="212.56" r="35.21"/>
<rect x="309.65" y="189.627" transform="matrix(-0.7071 -0.7071 0.7071 -0.7071 391.8781 596.5677)" style="fill:#009E2A;" width="19.684" height="54.993"/>
<path style="fill:#FF0019;" d="M298.519,368.66c-19.358-0.101-35.02-15.825-35.02-35.207c0-19.445,15.763-35.208,35.208-35.208
	c11.989,0,22.579,5.993,28.937,15.146L298.519,368.66z"/>
<path style="fill:#FFB242;" d="M256,88.03L256,88.03l-13.133,29.978L256,144.29l0,0c77.287,0,123.166,31.259,137.951,43.279l0,0
	L417,143.832C417,143.832,363.556,88.03,256,88.03z"/>
<path style="fill:#FFD69B;" d="M256,88.03c-107.556,0-161,55.802-161,55.802l23.049,43.737
	C132.833,175.55,178.712,144.29,256,144.29V88.03z"/>
<g>
</g>
<g>
</g>
<g>
</g>
<g>
</g>
<g>
</g>
<g>
</g>
<g>
</g>
<g>
</g>
<g>
</g>
<g>
</g>
<g>
</g>
<g>
</g>
<g>
</g>
<g>
</g>
<g>
</g>
</svg>
